<svg xmlns="http://www.w3.org/2000/svg" width="1600" height="900" viewBox="0 0 1600 900">
  <defs>
    <linearGradient id="bg" x1="0" y1="0" x2="1" y2="1"><stop stop-color="#05060b"/><stop offset=".55" stop-color="#130827"/><stop offset="1" stop-color="#020308"/></linearGradient>
    <radialGradient id="violet"><stop stop-color="#9f54ff" stop-opacity=".88"/><stop offset="1" stop-color="#5811bb" stop-opacity="0"/></radialGradient>
    <radialGradient id="cyan"><stop stop-color="#36d9ff" stop-opacity=".7"/><stop offset="1" stop-color="#0b58ff" stop-opacity="0"/></radialGradient>
    <filter id="blur"><feGaussianBlur stdDeviation="30"/></filter>
    <linearGradient id="screen" x1="0" y1="0" x2="0" y2="1"><stop stop-color="#e677ff"/><stop offset=".45" stop-color="#7131d4"/><stop offset="1" stop-color="#160927"/></linearGradient>
  </defs>
  <rect width="1600" height="900" fill="url(#bg)"/>
  <ellipse cx="510" cy="310" rx="440" ry="300" fill="url(#violet)" filter="url(#blur)"/>
  <ellipse cx="1110" cy="310" rx="410" ry="260" fill="url(#cyan)" filter="url(#blur)"/>
  <g opacity=".78">
    <path d="M170 90 510 650" stroke="#915bff" stroke-width="16" opacity=".24"/>
    <path d="M1430 80 1070 650" stroke="#27c9ff" stroke-width="14" opacity=".22"/>
    <path d="M570 40 740 680" stroke="#ff56de" stroke-width="10" opacity=".26"/>
    <path d="M1030 40 880 680" stroke="#43a9ff" stroke-width="10" opacity=".25"/>
  </g>
  <g transform="translate(300 265)">
    <rect width="1000" height="390" rx="12" fill="#080713" stroke="#3e295e" stroke-width="3"/>
    <rect x="34" y="28" width="270" height="310" rx="8" fill="url(#screen)"/>
    <rect x="365" y="16" width="270" height="330" rx="8" fill="url(#screen)"/>
    <rect x="696" y="28" width="270" height="310" rx="8" fill="url(#screen)"/>
    <g fill="#fff" opacity=".48">
      <circle cx="169" cy="116" r="38"/><path d="m120 260 49-112 52 112Z"/>
      <circle cx="500" cy="102" r="42"/><path d="m442 270 58-126 61 126Z"/>
      <circle cx="831" cy="116" r="38"/><path d="m781 260 50-112 52 112Z"/>
    </g>
  </g>
  <g fill="#0b0912">
    <path d="M0 900V725c110-75 180 18 285-42s185 46 285-4 180 23 278-33 171 30 260-17 160 35 240-8 149 13 252-34v313Z"/>
  </g>
  <g fill="#ff5df1" opacity=".82">
    <rect x="188" y="668" width="9" height="118" rx="5" transform="rotate(-18 188 668)"/>
    <rect x="1268" y="656" width="9" height="128" rx="5" transform="rotate(17 1268 656)"/>
    <rect x="405" y="692" width="8" height="105" rx="5" transform="rotate(10 405 692)"/>
  </g>
  <text x="72" y="90" fill="#fff" font-family="Inter,Arial" font-size="26" font-weight="700" letter-spacing="6">ODD.JS LIVE</text>
  <text x="72" y="125" fill="#a7a0b5" font-family="Inter,Arial" font-size="16" letter-spacing="2">LOW LATENCY INTERACTIVE STREAM</text>
</svg>
